<?xml version="1.0" encoding="UTF-8" standalone="no"?>
<!DOCTYPE svg PUBLIC "-//W3C//DTD SVG 1.1//EN"
 "http://www.w3.org/Graphics/SVG/1.1/DTD/svg11.dtd">
<!-- Generated by graphviz version 14.0.4 (20251115.1723)
 -->
<!-- Title: expression Pages: 1 -->
<svg width="347pt" height="648pt"
 viewBox="0.00 0.00 347.00 648.00" xmlns="http://www.w3.org/2000/svg" xmlns:xlink="http://www.w3.org/1999/xlink">
<g id="graph0" class="graph" transform="scale(1 1) rotate(0) translate(4 644)">
<title>expression</title>
<polygon fill="white" stroke="none" points="-4,4 -4,-644 342.81,-644 342.81,4 -4,4"/>
<!-- node000 -->
<g id="node1" class="node">
<title>node000</title>
<ellipse fill="lightpink" stroke="black" cx="188.88" cy="-622" rx="30.37" ry="18"/>
<text xml:space="preserve" text-anchor="middle" x="188.88" y="-616.95" font-family="Times New Roman,serif" font-size="14.00">XOR</text>
</g>
<!-- node001 -->
<g id="node2" class="node">
<title>node001</title>
<ellipse fill="lightgreen" stroke="black" cx="147.88" cy="-533.5" rx="30.88" ry="18"/>
<text xml:space="preserve" text-anchor="middle" x="147.88" y="-528.45" font-family="Times New Roman,serif" font-size="14.00">AND</text>
</g>
<!-- node000&#45;&gt;node001 -->
<g id="edge1" class="edge">
<title>node000&#45;&gt;node001</title>
<path fill="none" stroke="black" d="M180.97,-604.32C175.19,-592.12 167.22,-575.3 160.55,-561.23"/>
<polygon fill="black" stroke="black" points="163.85,-560.03 156.41,-552.49 157.53,-563.03 163.85,-560.03"/>
<text xml:space="preserve" text-anchor="middle" x="176.18" y="-572.7" font-family="Times New Roman,serif" font-size="14.00">L</text>
</g>
<!-- node002 -->
<g id="node3" class="node">
<title>node002</title>
<ellipse fill="lightgreen" stroke="black" cx="228.88" cy="-533.5" rx="30.88" ry="18"/>
<text xml:space="preserve" text-anchor="middle" x="228.88" y="-528.45" font-family="Times New Roman,serif" font-size="14.00">AND</text>
</g>
<!-- node000&#45;&gt;node002 -->
<g id="edge2" class="edge">
<title>node000&#45;&gt;node002</title>
<path fill="none" stroke="black" d="M196.59,-604.32C202.24,-592.12 210.01,-575.3 216.52,-561.23"/>
<polygon fill="black" stroke="black" points="219.53,-563.05 220.56,-552.5 213.18,-560.11 219.53,-563.05"/>
<text xml:space="preserve" text-anchor="middle" x="216.96" y="-572.7" font-family="Times New Roman,serif" font-size="14.00">R</text>
</g>
<!-- node003 -->
<g id="node4" class="node">
<title>node003</title>
<ellipse fill="yellow" stroke="black" cx="72.88" cy="-445" rx="29.86" ry="18"/>
<text xml:space="preserve" text-anchor="middle" x="72.88" y="-439.95" font-family="Times New Roman,serif" font-size="14.00">NOT</text>
</g>
<!-- node001&#45;&gt;node003 -->
<g id="edge3" class="edge">
<title>node001&#45;&gt;node003</title>
<path fill="none" stroke="black" d="M134.47,-517.04C123.06,-503.87 106.49,-484.76 93.4,-469.67"/>
<polygon fill="black" stroke="black" points="96.36,-467.74 87.16,-462.47 91.07,-472.32 96.36,-467.74"/>
<text xml:space="preserve" text-anchor="middle" x="121.22" y="-484.2" font-family="Times New Roman,serif" font-size="14.00">L</text>
</g>
<!-- node004 -->
<g id="node5" class="node">
<title>node004</title>
<ellipse fill="lightcoral" stroke="black" cx="147.88" cy="-445" rx="27" ry="18"/>
<text xml:space="preserve" text-anchor="middle" x="147.88" y="-439.95" font-family="Times New Roman,serif" font-size="14.00">OR</text>
</g>
<!-- node001&#45;&gt;node004 -->
<g id="edge4" class="edge">
<title>node001&#45;&gt;node004</title>
<path fill="none" stroke="black" d="M147.88,-515.41C147.88,-503.76 147.88,-488.05 147.88,-474.52"/>
<polygon fill="black" stroke="black" points="151.38,-474.86 147.88,-464.86 144.38,-474.86 151.38,-474.86"/>
<text xml:space="preserve" text-anchor="middle" x="152.38" y="-484.2" font-family="Times New Roman,serif" font-size="14.00">R</text>
</g>
<!-- node005 -->
<g id="node6" class="node">
<title>node005</title>
<ellipse fill="lightblue" stroke="black" cx="228.88" cy="-445" rx="27" ry="18"/>
<text xml:space="preserve" text-anchor="middle" x="228.88" y="-439.95" font-family="Times New Roman,serif" font-size="14.00">iota</text>
</g>
<!-- node002&#45;&gt;node005 -->
<g id="edge5" class="edge">
<title>node002&#45;&gt;node005</title>
<path fill="none" stroke="black" d="M228.88,-515.41C228.88,-503.76 228.88,-488.05 228.88,-474.52"/>
<polygon fill="black" stroke="black" points="232.38,-474.86 228.88,-464.86 225.38,-474.86 232.38,-474.86"/>
<text xml:space="preserve" text-anchor="middle" x="233" y="-484.2" font-family="Times New Roman,serif" font-size="14.00">L</text>
</g>
<!-- node006 -->
<g id="node7" class="node">
<title>node006</title>
<ellipse fill="yellow" stroke="black" cx="304.88" cy="-445" rx="29.86" ry="18"/>
<text xml:space="preserve" text-anchor="middle" x="304.88" y="-439.95" font-family="Times New Roman,serif" font-size="14.00">NOT</text>
</g>
<!-- node002&#45;&gt;node006 -->
<g id="edge6" class="edge">
<title>node002&#45;&gt;node006</title>
<path fill="none" stroke="black" d="M242.47,-517.04C254.03,-503.87 270.82,-484.76 284.08,-469.67"/>
<polygon fill="black" stroke="black" points="286.44,-472.29 290.41,-462.47 281.18,-467.67 286.44,-472.29"/>
<text xml:space="preserve" text-anchor="middle" x="278.19" y="-484.2" font-family="Times New Roman,serif" font-size="14.00">R</text>
</g>
<!-- node007 -->
<g id="node8" class="node">
<title>node007</title>
<ellipse fill="lightpink" stroke="black" cx="72.88" cy="-356.5" rx="30.37" ry="18"/>
<text xml:space="preserve" text-anchor="middle" x="72.88" y="-351.45" font-family="Times New Roman,serif" font-size="14.00">XOR</text>
</g>
<!-- node003&#45;&gt;node007 -->
<g id="edge7" class="edge">
<title>node003&#45;&gt;node007</title>
<path fill="none" stroke="black" d="M72.88,-426.91C72.88,-415.26 72.88,-399.55 72.88,-386.02"/>
<polygon fill="black" stroke="black" points="76.38,-386.36 72.88,-376.36 69.38,-386.36 76.38,-386.36"/>
</g>
<!-- node008 -->
<g id="node9" class="node">
<title>node008</title>
<ellipse fill="lightblue" stroke="black" cx="147.88" cy="-356.5" rx="27" ry="18"/>
<text xml:space="preserve" text-anchor="middle" x="147.88" y="-351.45" font-family="Times New Roman,serif" font-size="14.00">zeta</text>
</g>
<!-- node004&#45;&gt;node008 -->
<g id="edge8" class="edge">
<title>node004&#45;&gt;node008</title>
<path fill="none" stroke="black" d="M147.88,-426.91C147.88,-415.26 147.88,-399.55 147.88,-386.02"/>
<polygon fill="black" stroke="black" points="151.38,-386.36 147.88,-376.36 144.38,-386.36 151.38,-386.36"/>
<text xml:space="preserve" text-anchor="middle" x="152" y="-395.7" font-family="Times New Roman,serif" font-size="14.00">L</text>
</g>
<!-- node009 -->
<g id="node10" class="node">
<title>node009</title>
<ellipse fill="lightgreen" stroke="black" cx="223.88" cy="-356.5" rx="30.88" ry="18"/>
<text xml:space="preserve" text-anchor="middle" x="223.88" y="-351.45" font-family="Times New Roman,serif" font-size="14.00">AND</text>
</g>
<!-- node004&#45;&gt;node009 -->
<g id="edge9" class="edge">
<title>node004&#45;&gt;node009</title>
<path fill="none" stroke="black" d="M161.12,-428.93C172.64,-415.82 189.53,-396.59 202.89,-381.39"/>
<polygon fill="black" stroke="black" points="205.31,-383.94 209.28,-374.11 200.05,-379.32 205.31,-383.94"/>
<text xml:space="preserve" text-anchor="middle" x="197.19" y="-395.7" font-family="Times New Roman,serif" font-size="14.00">R</text>
</g>
<!-- node010 -->
<g id="node11" class="node">
<title>node010</title>
<ellipse fill="lightblue" stroke="black" cx="305.88" cy="-356.5" rx="32.93" ry="18"/>
<text xml:space="preserve" text-anchor="middle" x="305.88" y="-351.45" font-family="Times New Roman,serif" font-size="14.00">kappa</text>
</g>
<!-- node006&#45;&gt;node010 -->
<g id="edge10" class="edge">
<title>node006&#45;&gt;node010</title>
<path fill="none" stroke="black" d="M305.08,-426.91C305.21,-415.26 305.39,-399.55 305.55,-386.02"/>
<polygon fill="black" stroke="black" points="309.05,-386.4 305.66,-376.36 302.05,-386.32 309.05,-386.4"/>
</g>
<!-- node011 -->
<g id="node12" class="node">
<title>node011</title>
<ellipse fill="lightblue" stroke="black" cx="30.88" cy="-268" rx="30.88" ry="18"/>
<text xml:space="preserve" text-anchor="middle" x="30.88" y="-262.95" font-family="Times New Roman,serif" font-size="14.00">alpha</text>
</g>
<!-- node007&#45;&gt;node011 -->
<g id="edge11" class="edge">
<title>node007&#45;&gt;node011</title>
<path fill="none" stroke="black" d="M64.78,-338.82C58.85,-326.62 50.69,-309.8 43.86,-295.73"/>
<polygon fill="black" stroke="black" points="47.13,-294.46 39.61,-286.99 40.83,-297.51 47.13,-294.46"/>
<text xml:space="preserve" text-anchor="middle" x="59.77" y="-307.2" font-family="Times New Roman,serif" font-size="14.00">L</text>
</g>
<!-- node012 -->
<g id="node13" class="node">
<title>node012</title>
<ellipse fill="lightgreen" stroke="black" cx="110.88" cy="-268" rx="30.88" ry="18"/>
<text xml:space="preserve" text-anchor="middle" x="110.88" y="-262.95" font-family="Times New Roman,serif" font-size="14.00">AND</text>
</g>
<!-- node007&#45;&gt;node012 -->
<g id="edge12" class="edge">
<title>node007&#45;&gt;node012</title>
<path fill="none" stroke="black" d="M80.21,-338.82C85.48,-326.81 92.72,-310.34 98.84,-296.41"/>
<polygon fill="black" stroke="black" points="102.02,-297.87 102.84,-287.31 95.61,-295.06 102.02,-297.87"/>
<text xml:space="preserve" text-anchor="middle" x="99.78" y="-307.2" font-family="Times New Roman,serif" font-size="14.00">R</text>
</g>
<!-- node013 -->
<g id="node14" class="node">
<title>node013</title>
<ellipse fill="lightblue" stroke="black" cx="186.88" cy="-268" rx="27" ry="18"/>
<text xml:space="preserve" text-anchor="middle" x="186.88" y="-262.95" font-family="Times New Roman,serif" font-size="14.00">eta</text>
</g>
<!-- node009&#45;&gt;node013 -->
<g id="edge13" class="edge">
<title>node009&#45;&gt;node013</title>
<path fill="none" stroke="black" d="M216.75,-338.82C211.58,-326.74 204.47,-310.13 198.49,-296.14"/>
<polygon fill="black" stroke="black" points="201.74,-294.84 194.59,-287.02 195.3,-297.59 201.74,-294.84"/>
<text xml:space="preserve" text-anchor="middle" x="212.82" y="-307.2" font-family="Times New Roman,serif" font-size="14.00">L</text>
</g>
<!-- node014 -->
<g id="node15" class="node">
<title>node014</title>
<ellipse fill="lightblue" stroke="black" cx="260.88" cy="-268" rx="28.83" ry="18"/>
<text xml:space="preserve" text-anchor="middle" x="260.88" y="-262.95" font-family="Times New Roman,serif" font-size="14.00">theta</text>
</g>
<!-- node009&#45;&gt;node014 -->
<g id="edge14" class="edge">
<title>node009&#45;&gt;node014</title>
<path fill="none" stroke="black" d="M231.01,-338.82C236.15,-326.81 243.2,-310.34 249.15,-296.41"/>
<polygon fill="black" stroke="black" points="252.33,-297.88 253.05,-287.31 245.89,-295.13 252.33,-297.88"/>
<text xml:space="preserve" text-anchor="middle" x="250.19" y="-307.2" font-family="Times New Roman,serif" font-size="14.00">R</text>
</g>
<!-- node015 -->
<g id="node16" class="node">
<title>node015</title>
<ellipse fill="lightblue" stroke="black" cx="84.88" cy="-179.5" rx="27" ry="18"/>
<text xml:space="preserve" text-anchor="middle" x="84.88" y="-174.45" font-family="Times New Roman,serif" font-size="14.00">beta</text>
</g>
<!-- node012&#45;&gt;node015 -->
<g id="edge15" class="edge">
<title>node012&#45;&gt;node015</title>
<path fill="none" stroke="black" d="M105.74,-249.91C102.18,-238.06 97.36,-222.02 93.25,-208.34"/>
<polygon fill="black" stroke="black" points="96.67,-207.57 90.44,-199 89.97,-209.59 96.67,-207.57"/>
<text xml:space="preserve" text-anchor="middle" x="104.33" y="-218.7" font-family="Times New Roman,serif" font-size="14.00">L</text>
</g>
<!-- node016 -->
<g id="node17" class="node">
<title>node016</title>
<ellipse fill="lightcoral" stroke="black" cx="156.88" cy="-179.5" rx="27" ry="18"/>
<text xml:space="preserve" text-anchor="middle" x="156.88" y="-174.45" font-family="Times New Roman,serif" font-size="14.00">OR</text>
</g>
<!-- node012&#45;&gt;node016 -->
<g id="edge16" class="edge">
<title>node012&#45;&gt;node016</title>
<path fill="none" stroke="black" d="M119.75,-250.32C126.28,-238.04 135.3,-221.08 142.81,-206.96"/>
<polygon fill="black" stroke="black" points="145.88,-208.64 147.48,-198.17 139.7,-205.36 145.88,-208.64"/>
<text xml:space="preserve" text-anchor="middle" x="142.5" y="-218.7" font-family="Times New Roman,serif" font-size="14.00">R</text>
</g>
<!-- node017 -->
<g id="node18" class="node">
<title>node017</title>
<ellipse fill="lightblue" stroke="black" cx="126.88" cy="-91" rx="39.07" ry="18"/>
<text xml:space="preserve" text-anchor="middle" x="126.88" y="-85.95" font-family="Times New Roman,serif" font-size="14.00">gamma</text>
</g>
<!-- node016&#45;&gt;node017 -->
<g id="edge17" class="edge">
<title>node016&#45;&gt;node017</title>
<path fill="none" stroke="black" d="M151.09,-161.82C147,-150.01 141.4,-133.88 136.62,-120.1"/>
<polygon fill="black" stroke="black" points="139.93,-118.95 133.35,-110.65 133.32,-121.24 139.93,-118.95"/>
<text xml:space="preserve" text-anchor="middle" x="148.69" y="-130.2" font-family="Times New Roman,serif" font-size="14.00">L</text>
</g>
<!-- node018 -->
<g id="node19" class="node">
<title>node018</title>
<ellipse fill="yellow" stroke="black" cx="213.88" cy="-91" rx="29.86" ry="18"/>
<text xml:space="preserve" text-anchor="middle" x="213.88" y="-85.95" font-family="Times New Roman,serif" font-size="14.00">NOT</text>
</g>
<!-- node016&#45;&gt;node018 -->
<g id="edge18" class="edge">
<title>node016&#45;&gt;node018</title>
<path fill="none" stroke="black" d="M167.33,-162.63C175.64,-150.03 187.41,-132.16 197.04,-117.55"/>
<polygon fill="black" stroke="black" points="199.88,-119.6 202.46,-109.32 194.04,-115.75 199.88,-119.6"/>
<text xml:space="preserve" text-anchor="middle" x="194.98" y="-130.2" font-family="Times New Roman,serif" font-size="14.00">R</text>
</g>
<!-- node019 -->
<g id="node20" class="node">
<title>node019</title>
<ellipse fill="lightblue" stroke="black" cx="213.88" cy="-18" rx="28.83" ry="18"/>
<text xml:space="preserve" text-anchor="middle" x="213.88" y="-12.95" font-family="Times New Roman,serif" font-size="14.00">delta</text>
</g>
<!-- node018&#45;&gt;node019 -->
<g id="edge19" class="edge">
<title>node018&#45;&gt;node019</title>
<path fill="none" stroke="black" d="M213.88,-72.81C213.88,-65.23 213.88,-56.1 213.88,-47.54"/>
<polygon fill="black" stroke="black" points="217.38,-47.54 213.88,-37.54 210.38,-47.54 217.38,-47.54"/>
</g>
</g>
</svg>
